<svg width="28" height="40" viewBox="0 0 28 40" fill="none" xmlns="http://www.w3.org/2000/svg">
<path d="M23.5714 40H3.57143C2.62423 40 1.71582 39.6237 1.04605 38.954C0.376274 38.2842 0 37.3758 0 36.4286V3.57143C0 2.62423 0.376274 1.71583 1.04605 1.04605C1.71582 0.37628 2.62423 5.69637e-06 3.57143 5.69637e-06H16.6714C17.1407 -0.000832497 17.6056 0.0908394 18.0395 0.26978C18.4734 0.448721 18.8677 0.711421 19.2 1.04286L26.1 7.94286C26.4314 8.27514 26.6941 8.66949 26.8731 9.10336C27.052 9.53723 27.1437 10.0021 27.1429 10.4714V36.4286C27.1429 37.3758 26.7666 38.2842 26.0968 38.954C25.427 39.6237 24.5186 40 23.5714 40ZM3.57143 1.42858C3.00311 1.42858 2.45806 1.65434 2.0562 2.05621C1.65434 2.45807 1.42857 3.00311 1.42857 3.57143V36.4286C1.42857 36.9969 1.65434 37.5419 2.0562 37.9438C2.45806 38.3457 3.00311 38.5714 3.57143 38.5714H23.5714C24.1397 38.5714 24.6848 38.3457 25.0867 37.9438C25.4885 37.5419 25.7143 36.9969 25.7143 36.4286V10.4714C25.7138 9.9033 25.4877 9.35863 25.0857 8.95715L18.1857 2.05715C17.7842 1.65517 17.2396 1.42908 16.6714 1.42858H3.57143Z" fill="#794028"/>
<path d="M22.8571 10.7143H20C19.0528 10.7143 18.1444 10.338 17.4746 9.66825C16.8048 8.99848 16.4286 8.09007 16.4286 7.14287V4.28573C16.4286 4.09629 16.5038 3.91461 16.6378 3.78065C16.7717 3.6467 16.9534 3.57144 17.1429 3.57144C17.3323 3.57144 17.514 3.6467 17.6479 3.78065C17.7819 3.91461 17.8571 4.09629 17.8571 4.28573V7.14287C17.8571 7.71119 18.0829 8.25623 18.4848 8.6581C18.8866 9.05996 19.4317 9.28573 20 9.28573H22.8571C23.0466 9.28573 23.2283 9.36098 23.3622 9.49494C23.4962 9.62889 23.5714 9.81057 23.5714 10C23.5714 10.1895 23.4962 10.3711 23.3622 10.5051C23.2283 10.639 23.0466 10.7143 22.8571 10.7143ZM13.5714 7.85716H5.71429C5.52485 7.85716 5.34316 7.7819 5.20921 7.64795C5.07525 7.51399 5 7.33231 5 7.14287C5 6.95343 5.07525 6.77175 5.20921 6.63779C5.34316 6.50384 5.52485 6.42858 5.71429 6.42858H13.5714C13.7609 6.42858 13.9425 6.50384 14.0765 6.63779C14.2105 6.77175 14.2857 6.95343 14.2857 7.14287C14.2857 7.33231 14.2105 7.51399 14.0765 7.64795C13.9425 7.7819 13.7609 7.85716 13.5714 7.85716ZM15.7143 12.8572H5.71429C5.52485 12.8572 5.34316 12.7819 5.20921 12.6479C5.07525 12.514 5 12.3323 5 12.1429C5 11.9534 5.07525 11.7717 5.20921 11.6378C5.34316 11.5038 5.52485 11.4286 5.71429 11.4286H15.7143C15.9037 11.4286 16.0854 11.5038 16.2194 11.6378C16.3533 11.7717 16.4286 11.9534 16.4286 12.1429C16.4286 12.3323 16.3533 12.514 16.2194 12.6479C16.0854 12.7819 15.9037 12.8572 15.7143 12.8572ZM21.4286 17.8572H5.71429C5.52485 17.8572 5.34316 17.7819 5.20921 17.6479C5.07525 17.514 5 17.3323 5 17.1429C5 16.9534 5.07525 16.7717 5.20921 16.6378C5.34316 16.5038 5.52485 16.4286 5.71429 16.4286H21.4286C21.618 16.4286 21.7997 16.5038 21.9336 16.6378C22.0676 16.7717 22.1429 16.9534 22.1429 17.1429C22.1429 17.3323 22.0676 17.514 21.9336 17.6479C21.7997 17.7819 21.618 17.8572 21.4286 17.8572ZM21.4286 22.8572H5.71429C5.52485 22.8572 5.34316 22.7819 5.20921 22.6479C5.07525 22.514 5 22.3323 5 22.1429C5 21.9534 5.07525 21.7717 5.20921 21.6378C5.34316 21.5038 5.52485 21.4286 5.71429 21.4286H21.4286C21.618 21.4286 21.7997 21.5038 21.9336 21.6378C22.0676 21.7717 22.1429 21.9534 22.1429 22.1429C22.1429 22.3323 22.0676 22.514 21.9336 22.6479C21.7997 22.7819 21.618 22.8572 21.4286 22.8572ZM21.4286 27.8572H5.71429C5.52485 27.8572 5.34316 27.7819 5.20921 27.6479C5.07525 27.514 5 27.3323 5 27.1429C5 26.9534 5.07525 26.7717 5.20921 26.6378C5.34316 26.5038 5.52485 26.4286 5.71429 26.4286H21.4286C21.618 26.4286 21.7997 26.5038 21.9336 26.6378C22.0676 26.7717 22.1429 26.9534 22.1429 27.1429C22.1429 27.3323 22.0676 27.514 21.9336 27.6479C21.7997 27.7819 21.618 27.8572 21.4286 27.8572ZM21.4286 32.8572H5.71429C5.52485 32.8572 5.34316 32.7819 5.20921 32.6479C5.07525 32.514 5 32.3323 5 32.1429C5 31.9534 5.07525 31.7717 5.20921 31.6378C5.34316 31.5038 5.52485 31.4286 5.71429 31.4286H21.4286C21.618 31.4286 21.7997 31.5038 21.9336 31.6378C22.0676 31.7717 22.1429 31.9534 22.1429 32.1429C22.1429 32.3323 22.0676 32.514 21.9336 32.6479C21.7997 32.7819 21.618 32.8572 21.4286 32.8572Z" fill="#794028"/>
</svg>
