<svg width="36" height="35" viewBox="0 0 36 35" fill="none" xmlns="http://www.w3.org/2000/svg">
<path d="M17.676 35C10.8167 35 4.57296 30.9548 1.75888 24.799L4.04532 23.7437C6.50763 29.0201 11.872 32.4498 17.676 32.4498C25.9423 32.4498 32.6257 25.7663 32.6257 17.5C32.6257 9.23367 25.9423 2.55025 17.676 2.55025C11.4323 2.55025 6.15587 6.41959 3.95738 12.5754L1.58301 11.696C4.13326 4.57285 10.377 0 17.676 0C27.3493 0 35.176 7.82663 35.176 17.5C35.176 27.1734 27.2614 35 17.676 35Z" fill="black"/>
<path d="M10.9045 13.4548H0V2.63818H2.72613V10.7286H10.9045V13.4548Z" fill="black"/>
</svg>
