<svg width="35" height="35" viewBox="0 0 35 35" fill="none" xmlns="http://www.w3.org/2000/svg">
<path d="M17.5 14.7368C16.0427 14.7368 14.6181 14.3047 13.4063 13.495C12.1946 12.6854 11.2502 11.5346 10.6925 10.1882C10.1348 8.84179 9.98885 7.36025 10.2732 5.93092C10.5575 4.50158 11.2592 3.18866 12.2897 2.15816C13.3202 1.12767 14.6332 0.425898 16.0625 0.141585C17.4918 -0.142727 18.9734 0.0031926 20.3198 0.560891C21.6662 1.11859 22.817 2.06302 23.6266 3.27475C24.4363 4.48648 24.8684 5.91109 24.8684 7.36842C24.8684 9.32265 24.0921 11.1968 22.7103 12.5787C21.3284 13.9605 19.4542 14.7368 17.5 14.7368ZM17.5 1.84211C16.407 1.84211 15.3385 2.16622 14.4297 2.77346C13.5209 3.3807 12.8126 4.24379 12.3943 5.25359C11.9761 6.2634 11.8666 7.37455 12.0799 8.44655C12.2931 9.51855 12.8194 10.5033 13.5923 11.2761C14.3652 12.049 15.3499 12.5753 16.4219 12.7886C17.4939 13.0018 18.605 12.8923 19.6148 12.4741C20.6246 12.0558 21.4877 11.3475 22.095 10.4387C22.7022 9.52988 23.0263 8.46143 23.0263 7.36842C23.0263 5.90275 22.4441 4.49711 21.4077 3.46073C20.3713 2.42434 18.9657 1.84211 17.5 1.84211ZM35 35H33.1579V34.0789C33.1579 29.9262 31.5082 25.9436 28.5718 23.0071C25.6354 20.0707 21.6527 18.4211 17.5 18.4211C13.3473 18.4211 9.36462 20.0707 6.4282 23.0071C3.49177 25.9436 1.84211 29.9262 1.84211 34.0789V35H0V34.0789C0 29.4377 1.84374 24.9865 5.12563 21.7046C8.40752 18.4227 12.8587 16.5789 17.5 16.5789C22.1413 16.5789 26.5925 18.4227 29.8744 21.7046C33.1563 24.9865 35 29.4377 35 34.0789V35Z" fill="black"/>
</svg>
