<svg width="30" height="30" viewBox="0 0 30 30" fill="none" xmlns="http://www.w3.org/2000/svg">
<path d="M8.24348 21.7565C8.42676 21.9398 8.6663 22.0312 8.9063 22.0312C9.1463 22.0312 9.38583 21.9398 9.56911 21.7565L15 16.3256L20.431 21.7565C20.6143 21.9398 20.8538 22.0312 21.0938 22.0312C21.3338 22.0312 21.5733 21.9398 21.7566 21.7565C21.9324 21.5807 22.0311 21.3423 22.0311 21.0937C22.0311 20.8451 21.9324 20.6067 21.7566 20.4309L16.3257 15L21.7566 9.56905C21.8462 9.48257 21.9176 9.37912 21.9667 9.26474C22.0158 9.15036 22.0417 9.02734 22.0428 8.90286C22.0439 8.77838 22.0201 8.65493 21.973 8.53972C21.9259 8.4245 21.8563 8.31983 21.7682 8.2318C21.6802 8.14378 21.5755 8.07417 21.4603 8.02703C21.3451 7.97989 21.2217 7.95617 21.0972 7.95725C20.9727 7.95833 20.8497 7.98419 20.7353 8.03333C20.6209 8.08246 20.5175 8.15388 20.431 8.24342L15 13.6744L9.56911 8.24342C9.48263 8.15388 9.37918 8.08246 9.2648 8.03333C9.15042 7.98419 9.0274 7.95833 8.90292 7.95725C8.77844 7.95617 8.65499 7.97989 8.53978 8.02703C8.42456 8.07417 8.31989 8.14378 8.23186 8.2318C8.14384 8.31983 8.07423 8.4245 8.02709 8.53972C7.97995 8.65493 7.95623 8.77838 7.95731 8.90286C7.95839 9.02734 7.98425 9.15036 8.03339 9.26474C8.08252 9.37912 8.15394 9.48257 8.24348 9.56905L13.6744 15L8.24348 20.4309C8.06773 20.6067 7.969 20.8451 7.969 21.0937C7.969 21.3423 8.06773 21.5807 8.24348 21.7565Z" fill="#794028"/>
<path d="M15 30C19.0064 30 22.7733 28.4395 25.6059 25.6064C28.4395 22.7733 30 19.0064 30 15C30 10.9936 28.4395 7.22672 25.6059 4.39406C22.7733 1.56047 19.0064 0 15 0C10.9936 0 7.22672 1.56047 4.39406 4.39359C1.56047 7.22672 0 10.9936 0 15C0 19.0064 1.56047 22.7733 4.39406 25.6059C7.22672 28.4395 10.9936 30 15 30ZM5.71969 5.71969C8.19844 3.24047 11.4942 1.875 15 1.875C18.5058 1.875 21.8016 3.24047 24.2803 5.71969C26.7595 8.19844 28.125 11.4942 28.125 15C28.125 18.5058 26.7595 21.8016 24.2803 24.2803C21.8016 26.7595 18.5058 28.125 15 28.125C11.4942 28.125 8.19844 26.7595 5.71969 24.2803C3.24047 21.8016 1.875 18.5058 1.875 15C1.875 11.4942 3.24047 8.19844 5.71969 5.71969Z" fill="#794028"/>
</svg>
