<svg width="26" height="35" viewBox="0 0 26 35" fill="none" xmlns="http://www.w3.org/2000/svg">
<mask id="path-1-inside-1_859_2309" fill="white">
<path d="M25.2036 2.76582C25.012 2.54152 24.7737 2.36139 24.5052 2.23792C24.2367 2.11445 23.9445 2.05059 23.6488 2.05078H21.8882C21.869 1.87838 21.8479 1.71117 21.8252 1.55094C21.7619 1.12084 21.5456 0.727683 21.2157 0.443034C20.8858 0.158384 20.4642 0.00116724 20.0276 0L5.66369 0C5.22716 0.00118603 4.80557 0.15842 4.47566 0.443082C4.14575 0.727744 3.92945 1.12091 3.86614 1.55101C3.84349 1.71124 3.82248 1.87845 3.80319 2.05078H2.04251C1.74676 2.05084 1.45455 2.11484 1.18608 2.23835C0.917603 2.36187 0.67926 2.54196 0.48752 2.76618C0.295779 2.99041 0.155214 3.25341 0.0755364 3.53702C-0.00414081 3.82063 -0.02103 4.11809 0.0260364 4.40884L0.411839 6.78897C0.740434 8.825 1.65305 10.723 3.03981 12.2546C4.42657 13.7861 6.22834 14.8857 8.22818 15.4212C8.92192 16.1611 9.67909 16.8395 10.4911 17.4485C10.2026 17.6107 9.96744 17.8527 9.81405 18.1451C9.66067 18.4376 9.59562 18.768 9.62677 19.0964C9.65791 19.4249 9.78393 19.7373 9.98957 19.996C10.1952 20.2547 10.4717 20.4485 10.7856 20.5541C10.7079 21.3027 10.5118 22.0344 10.2044 22.722C9.37769 24.5644 7.93766 25.6191 7.08038 26.1133H6.87327C6.55477 26.1136 6.24941 26.2398 6.0242 26.4641C5.79898 26.6883 5.67229 26.9924 5.67193 27.3096V31.582H4.81383C4.49533 31.5824 4.18997 31.7085 3.96475 31.9328C3.73954 32.1571 3.61285 32.4612 3.61249 32.7783V33.8037C3.61285 34.1209 3.73954 34.4249 3.96475 34.6492C4.18997 34.8735 4.49533 34.9996 4.81383 35H20.8775C21.196 34.9996 21.5013 34.8735 21.7266 34.6492C21.9518 34.4249 22.0785 34.1209 22.0788 33.8037V32.7783C22.0785 32.4612 21.9518 32.1571 21.7266 31.9328C21.5013 31.7085 21.196 31.5824 20.8775 31.582H20.0194V27.3096C20.019 26.9924 19.8923 26.6883 19.6671 26.4641C19.4419 26.2398 19.1365 26.1136 18.818 26.1133H18.6109C17.7536 25.619 16.3136 24.5644 15.4869 22.722C15.1795 22.0344 14.9834 21.3027 14.9057 20.5541C15.2196 20.4485 15.4961 20.2547 15.7017 19.996C15.9074 19.7373 16.0334 19.4249 16.0646 19.0964C16.0957 18.768 16.0307 18.4376 15.8773 18.1451C15.7239 17.8527 15.4887 17.6107 15.2002 17.4485C16.0122 16.8395 16.7694 16.1611 17.4631 15.4212C19.463 14.8858 21.2647 13.7861 22.6515 12.2546C24.0382 10.7231 24.9509 8.82511 25.2795 6.78911L25.6653 4.4087C25.7125 4.1179 25.6957 3.82034 25.616 3.53665C25.5363 3.25297 25.3955 2.98994 25.2036 2.76582ZM1.42845 6.62573L1.04265 4.2456C1.01933 4.10142 1.02771 3.95393 1.06723 3.8133C1.10674 3.67267 1.17644 3.54225 1.2715 3.43106C1.36657 3.31987 1.48474 3.23056 1.61786 3.16928C1.75097 3.10801 1.89586 3.07624 2.04251 3.07617H3.71985C3.57756 5.71562 4.0616 8.35134 5.13277 10.7698C5.6197 11.8649 6.22451 12.9042 6.93657 13.8694C5.49304 13.2034 4.23584 12.1946 3.27543 10.9315C2.31503 9.6685 1.68079 8.18994 1.42845 6.62573ZM20.8775 32.6074C20.923 32.6075 20.9666 32.6255 20.9988 32.6575C21.031 32.6896 21.0491 32.733 21.0491 32.7783V33.8037C21.0491 33.849 21.031 33.8925 20.9988 33.9245C20.9666 33.9565 20.923 33.9746 20.8775 33.9746H4.81383C4.76833 33.9746 4.72471 33.9565 4.69254 33.9245C4.66036 33.8925 4.64226 33.849 4.64221 33.8037V32.7783C4.64226 32.733 4.66036 32.6896 4.69254 32.6575C4.72471 32.6255 4.76833 32.6075 4.81383 32.6074H20.8775ZM18.4727 27.1387L18.4743 27.1387L18.4758 27.1387H18.818C18.8635 27.1387 18.9072 27.1567 18.9393 27.1888C18.9715 27.2208 18.9896 27.2643 18.9897 27.3096V31.582H6.70165V27.3096C6.70171 27.2643 6.71981 27.2208 6.75198 27.1888C6.78415 27.1567 6.82777 27.1387 6.87327 27.1387H7.21548L7.21699 27.1387L7.21857 27.1387H18.4727ZM16.8256 26.1133H8.86572C9.84248 25.3077 10.6219 24.291 11.1446 23.1403C11.499 22.349 11.7245 21.5065 11.8126 20.6445H13.8787C13.9668 21.5065 14.1923 22.349 14.5467 23.1403C15.0694 24.291 15.8488 25.3077 16.8256 26.1133ZM14.3559 19.6191H11.3354C11.1533 19.6191 10.9787 19.5471 10.85 19.4189C10.7212 19.2907 10.6489 19.1168 10.6489 18.9355C10.6489 18.7542 10.7212 18.5804 10.85 18.4522C10.9787 18.324 11.1533 18.252 11.3354 18.252H11.7919C11.808 18.2526 11.824 18.2527 11.84 18.252H13.8601C13.8654 18.2521 13.8706 18.2529 13.8759 18.2529C13.8805 18.2529 13.8852 18.2521 13.8899 18.252H14.3559C14.538 18.252 14.7126 18.324 14.8413 18.4522C14.9701 18.5804 15.0424 18.7542 15.0424 18.9355C15.0424 19.1168 14.9701 19.2907 14.8413 19.4189C14.7126 19.5471 14.538 19.6191 14.3559 19.6191ZM13.7253 17.2266H11.966C10.4196 16.2251 7.71943 14.0578 6.07435 10.355C4.56031 6.94682 4.59223 3.76414 4.8857 1.69436C4.9134 1.50855 5.00716 1.33881 5.14993 1.21604C5.2927 1.09327 5.47499 1.02562 5.66362 1.02539H20.0276C20.2163 1.0256 20.3985 1.09325 20.5413 1.21603C20.6841 1.33881 20.7778 1.50855 20.8055 1.69436C21.099 3.76414 21.1309 6.94682 19.6169 10.355C17.9718 14.0578 15.2716 16.225 13.7252 17.2266H13.7253ZM24.6487 4.24539L24.2629 6.62587C24.0106 8.19006 23.3763 9.66859 22.4159 10.9316C21.4555 12.1946 20.1983 13.2034 18.7548 13.8694C19.4668 12.9042 20.0716 11.8649 20.5585 10.7698C21.6297 8.35134 22.1138 5.71562 21.9715 3.07617H23.6488C23.7954 3.07623 23.9403 3.10798 24.0734 3.16923C24.2066 3.23048 24.3247 3.31978 24.4198 3.43095C24.5149 3.54212 24.5846 3.67251 24.6241 3.81313C24.6636 3.95374 24.672 4.10123 24.6487 4.24539Z"/>
</mask>
<path d="M25.2036 2.76582C25.012 2.54152 24.7737 2.36139 24.5052 2.23792C24.2367 2.11445 23.9445 2.05059 23.6488 2.05078H21.8882C21.869 1.87838 21.8479 1.71117 21.8252 1.55094C21.7619 1.12084 21.5456 0.727683 21.2157 0.443034C20.8858 0.158384 20.4642 0.00116724 20.0276 0L5.66369 0C5.22716 0.00118603 4.80557 0.15842 4.47566 0.443082C4.14575 0.727744 3.92945 1.12091 3.86614 1.55101C3.84349 1.71124 3.82248 1.87845 3.80319 2.05078H2.04251C1.74676 2.05084 1.45455 2.11484 1.18608 2.23835C0.917603 2.36187 0.67926 2.54196 0.48752 2.76618C0.295779 2.99041 0.155214 3.25341 0.0755364 3.53702C-0.00414081 3.82063 -0.02103 4.11809 0.0260364 4.40884L0.411839 6.78897C0.740434 8.825 1.65305 10.723 3.03981 12.2546C4.42657 13.7861 6.22834 14.8857 8.22818 15.4212C8.92192 16.1611 9.67909 16.8395 10.4911 17.4485C10.2026 17.6107 9.96744 17.8527 9.81405 18.1451C9.66067 18.4376 9.59562 18.768 9.62677 19.0964C9.65791 19.4249 9.78393 19.7373 9.98957 19.996C10.1952 20.2547 10.4717 20.4485 10.7856 20.5541C10.7079 21.3027 10.5118 22.0344 10.2044 22.722C9.37769 24.5644 7.93766 25.6191 7.08038 26.1133H6.87327C6.55477 26.1136 6.24941 26.2398 6.0242 26.4641C5.79898 26.6883 5.67229 26.9924 5.67193 27.3096V31.582H4.81383C4.49533 31.5824 4.18997 31.7085 3.96475 31.9328C3.73954 32.1571 3.61285 32.4612 3.61249 32.7783V33.8037C3.61285 34.1209 3.73954 34.4249 3.96475 34.6492C4.18997 34.8735 4.49533 34.9996 4.81383 35H20.8775C21.196 34.9996 21.5013 34.8735 21.7266 34.6492C21.9518 34.4249 22.0785 34.1209 22.0788 33.8037V32.7783C22.0785 32.4612 21.9518 32.1571 21.7266 31.9328C21.5013 31.7085 21.196 31.5824 20.8775 31.582H20.0194V27.3096C20.019 26.9924 19.8923 26.6883 19.6671 26.4641C19.4419 26.2398 19.1365 26.1136 18.818 26.1133H18.6109C17.7536 25.619 16.3136 24.5644 15.4869 22.722C15.1795 22.0344 14.9834 21.3027 14.9057 20.5541C15.2196 20.4485 15.4961 20.2547 15.7017 19.996C15.9074 19.7373 16.0334 19.4249 16.0646 19.0964C16.0957 18.768 16.0307 18.4376 15.8773 18.1451C15.7239 17.8527 15.4887 17.6107 15.2002 17.4485C16.0122 16.8395 16.7694 16.1611 17.4631 15.4212C19.463 14.8858 21.2647 13.7861 22.6515 12.2546C24.0382 10.7231 24.9509 8.82511 25.2795 6.78911L25.6653 4.4087C25.7125 4.1179 25.6957 3.82034 25.616 3.53665C25.5363 3.25297 25.3955 2.98994 25.2036 2.76582ZM1.42845 6.62573L1.04265 4.2456C1.01933 4.10142 1.02771 3.95393 1.06723 3.8133C1.10674 3.67267 1.17644 3.54225 1.2715 3.43106C1.36657 3.31987 1.48474 3.23056 1.61786 3.16928C1.75097 3.10801 1.89586 3.07624 2.04251 3.07617H3.71985C3.57756 5.71562 4.0616 8.35134 5.13277 10.7698C5.6197 11.8649 6.22451 12.9042 6.93657 13.8694C5.49304 13.2034 4.23584 12.1946 3.27543 10.9315C2.31503 9.6685 1.68079 8.18994 1.42845 6.62573ZM20.8775 32.6074C20.923 32.6075 20.9666 32.6255 20.9988 32.6575C21.031 32.6896 21.0491 32.733 21.0491 32.7783V33.8037C21.0491 33.849 21.031 33.8925 20.9988 33.9245C20.9666 33.9565 20.923 33.9746 20.8775 33.9746H4.81383C4.76833 33.9746 4.72471 33.9565 4.69254 33.9245C4.66036 33.8925 4.64226 33.849 4.64221 33.8037V32.7783C4.64226 32.733 4.66036 32.6896 4.69254 32.6575C4.72471 32.6255 4.76833 32.6075 4.81383 32.6074H20.8775ZM18.4727 27.1387L18.4743 27.1387L18.4758 27.1387H18.818C18.8635 27.1387 18.9072 27.1567 18.9393 27.1888C18.9715 27.2208 18.9896 27.2643 18.9897 27.3096V31.582H6.70165V27.3096C6.70171 27.2643 6.71981 27.2208 6.75198 27.1888C6.78415 27.1567 6.82777 27.1387 6.87327 27.1387H7.21548L7.21699 27.1387L7.21857 27.1387H18.4727ZM16.8256 26.1133H8.86572C9.84248 25.3077 10.6219 24.291 11.1446 23.1403C11.499 22.349 11.7245 21.5065 11.8126 20.6445H13.8787C13.9668 21.5065 14.1923 22.349 14.5467 23.1403C15.0694 24.291 15.8488 25.3077 16.8256 26.1133ZM14.3559 19.6191H11.3354C11.1533 19.6191 10.9787 19.5471 10.85 19.4189C10.7212 19.2907 10.6489 19.1168 10.6489 18.9355C10.6489 18.7542 10.7212 18.5804 10.85 18.4522C10.9787 18.324 11.1533 18.252 11.3354 18.252H11.7919C11.808 18.2526 11.824 18.2527 11.84 18.252H13.8601C13.8654 18.2521 13.8706 18.2529 13.8759 18.2529C13.8805 18.2529 13.8852 18.2521 13.8899 18.252H14.3559C14.538 18.252 14.7126 18.324 14.8413 18.4522C14.9701 18.5804 15.0424 18.7542 15.0424 18.9355C15.0424 19.1168 14.9701 19.2907 14.8413 19.4189C14.7126 19.5471 14.538 19.6191 14.3559 19.6191ZM13.7253 17.2266H11.966C10.4196 16.2251 7.71943 14.0578 6.07435 10.355C4.56031 6.94682 4.59223 3.76414 4.8857 1.69436C4.9134 1.50855 5.00716 1.33881 5.14993 1.21604C5.2927 1.09327 5.47499 1.02562 5.66362 1.02539H20.0276C20.2163 1.0256 20.3985 1.09325 20.5413 1.21603C20.6841 1.33881 20.7778 1.50855 20.8055 1.69436C21.099 3.76414 21.1309 6.94682 19.6169 10.355C17.9718 14.0578 15.2716 16.225 13.7252 17.2266H13.7253ZM24.6487 4.24539L24.2629 6.62587C24.0106 8.19006 23.3763 9.66859 22.4159 10.9316C21.4555 12.1946 20.1983 13.2034 18.7548 13.8694C19.4668 12.9042 20.0716 11.8649 20.5585 10.7698C21.6297 8.35134 22.1138 5.71562 21.9715 3.07617H23.6488C23.7954 3.07623 23.9403 3.10798 24.0734 3.16923C24.2066 3.23048 24.3247 3.31978 24.4198 3.43095C24.5149 3.54212 24.5846 3.67251 24.6241 3.81313C24.6636 3.95374 24.672 4.10123 24.6487 4.24539Z" fill="#D9D9D9" stroke="black" stroke-width="2" mask="url(#path-1-inside-1_859_2309)"/>
</svg>
