<svg width="34" height="36" viewBox="0 0 34 36" fill="none" xmlns="http://www.w3.org/2000/svg">
<path d="M23.3399 22.9956C25.2351 20.5639 26.432 17.4449 26.432 14.0088C26.432 6.29075 20.4972 0 13.216 0C5.93473 0 0 6.29075 0 14.0088C0 21.7269 5.93473 28.0176 13.216 28.0176C16.4078 28.0176 19.4001 26.8018 21.6942 24.7401L31.9677 35.63C32.2171 35.8943 32.5163 36 32.8155 36C33.1148 36 33.414 35.8943 33.6634 35.63C34.1122 35.1542 34.1122 34.3084 33.6634 33.8326L23.3399 22.9956ZM13.1661 25.4802C7.18152 25.4802 2.34397 20.3524 2.34397 14.0088C2.34397 7.6652 7.18152 2.53745 13.1661 2.53745C19.1507 2.53745 23.9883 7.6652 23.9883 14.0088C23.9883 20.3524 19.1507 25.4802 13.1661 25.4802Z" fill="black"/>
</svg>
